<svg width="54" height="54" viewBox="0 0 54 54" fill="none" xmlns="http://www.w3.org/2000/svg">
<path d="M26.931 0.00478166C26.931 0.00478166 42.8459 -0.706849 51.2836 15.2328H25.5768C25.5768 15.2328 20.7254 15.0771 16.5813 20.9414C15.3908 23.4029 14.1111 25.9385 15.5471 30.9355C13.4785 27.4434 4.56494 11.9783 4.56494 11.9783C4.56494 11.9783 10.8523 0.634933 26.931 0.00478166Z" fill="#EF3F36"/>
<path d="M50.458 40.4696C50.458 40.4696 43.1141 54.5633 25.0488 53.8663C27.281 50.0185 37.9058 31.6841 37.9058 31.6841C37.9058 31.6841 40.4729 27.5769 37.4446 21.0675C35.9042 18.8063 34.3343 16.4413 29.275 15.1808C33.345 15.144 51.2393 15.1808 51.2393 15.1808C51.2393 15.1808 57.943 26.2795 50.458 40.4696Z" fill="#FCD900"/>
<path d="M3.51614 40.5807C3.51614 40.5807 -5.06276 27.1986 4.58002 11.9558C6.80478 15.8037 17.4296 34.138 17.4296 34.138C17.4296 34.138 19.7214 38.4084 26.8865 39.0458C29.6173 38.8457 32.4595 38.6752 36.0907 34.9461C34.0888 38.4752 25.108 53.8959 25.108 53.8959C25.108 53.8959 12.1024 54.1332 3.51614 40.5807Z" fill="#61BC5B"/>
<path d="M25.041 54.0001L28.657 38.9649C28.657 38.9649 32.6302 38.6533 35.9635 35.0132C33.895 38.6388 25.041 54.0001 25.041 54.0001Z" fill="#5AB055"/>
<path d="M14.8184 27.1688C14.8184 20.541 20.2128 15.1659 26.8644 15.1659C33.516 15.1659 38.9105 20.541 38.9105 27.1688C38.9105 33.7969 33.516 39.1719 26.8644 39.1719C20.2128 39.1644 14.8184 33.7969 14.8184 27.1688Z" fill="white"/>
<path d="M16.8345 27.1687C16.8345 21.653 21.3212 17.175 26.8643 17.175C32.3999 17.175 36.894 21.6456 36.894 27.1687C36.894 32.6847 32.4075 37.1628 26.8643 37.1628C21.3285 37.1628 16.8345 32.6847 16.8345 27.1687Z" fill="url(#paint0_linear_2379_918)"/>
<path d="M51.2317 15.1883L36.3432 19.5402C36.3432 19.5402 34.0964 16.2557 29.2676 15.1883C33.4565 15.166 51.2317 15.1883 51.2317 15.1883Z" fill="#EACA05"/>
<path d="M15.257 30.387C13.1661 26.7763 4.56494 11.9784 4.56494 11.9784L15.5917 22.847C15.5917 22.847 14.4607 25.1676 14.8849 28.4889L15.257 30.387Z" fill="#DF3A32"/>
<defs>
<linearGradient id="paint0_linear_2379_918" x1="26.8638" y1="17.3161" x2="26.8638" y2="36.5612" gradientUnits="userSpaceOnUse">
<stop stop-color="#86BBE5"/>
<stop offset="1" stop-color="#1072BA"/>
</linearGradient>
</defs>
</svg>
