<svg width="80" height="80" viewBox="0 0 80 80" fill="none" xmlns="http://www.w3.org/2000/svg">
<path d="M40 79C61.5391 79 79 61.5391 79 40C79 18.4609 61.5391 1 40 1C18.4609 1 1 18.4609 1 40C1 61.5391 18.4609 79 40 79Z" stroke="url(#paint0_linear_2354_63)" stroke-width="2" stroke-dasharray="2 6"/>
<path d="M40.0694 54.408C38.7094 54.408 37.4288 54.1587 36.2274 53.66C35.0488 53.1613 34.0288 52.4587 33.1674 51.552C32.3288 50.6453 31.7281 49.58 31.3654 48.356L34.7654 47.064C35.2188 48.2653 35.9101 49.1947 36.8394 49.852C37.7688 50.5093 38.8454 50.838 40.0694 50.838C41.0668 50.838 41.9281 50.6453 42.6534 50.26C43.4014 49.8747 43.9794 49.3307 44.3874 48.628C44.8181 47.9253 45.0334 47.0753 45.0334 46.078C45.0334 45.1033 44.8181 44.2647 44.3874 43.562C43.9794 42.8593 43.4014 42.3267 42.6534 41.964C41.9281 41.6013 41.0668 41.42 40.0694 41.42C39.6614 41.42 39.2421 41.454 38.8114 41.522C38.4034 41.59 38.0408 41.6807 37.7234 41.794L36.8394 39.924L43.5034 32.07H32.7254V28.67H47.9914V31.9L41.4634 39.72L41.3614 38.428C42.8801 38.4507 44.2174 38.7907 45.3734 39.448C46.5294 40.0827 47.4248 40.9667 48.0594 42.1C48.7168 43.2107 49.0454 44.5027 49.0454 45.976C49.0454 47.5627 48.6601 49.002 47.8894 50.294C47.1188 51.5633 46.0534 52.572 44.6934 53.32C43.3561 54.0453 41.8148 54.408 40.0694 54.408Z" fill="#101011"/>
<path d="M40.0694 54.408C38.7094 54.408 37.4288 54.1587 36.2274 53.66C35.0488 53.1613 34.0288 52.4587 33.1674 51.552C32.3288 50.6453 31.7281 49.58 31.3654 48.356L34.7654 47.064C35.2188 48.2653 35.9101 49.1947 36.8394 49.852C37.7688 50.5093 38.8454 50.838 40.0694 50.838C41.0668 50.838 41.9281 50.6453 42.6534 50.26C43.4014 49.8747 43.9794 49.3307 44.3874 48.628C44.8181 47.9253 45.0334 47.0753 45.0334 46.078C45.0334 45.1033 44.8181 44.2647 44.3874 43.562C43.9794 42.8593 43.4014 42.3267 42.6534 41.964C41.9281 41.6013 41.0668 41.42 40.0694 41.42C39.6614 41.42 39.2421 41.454 38.8114 41.522C38.4034 41.59 38.0408 41.6807 37.7234 41.794L36.8394 39.924L43.5034 32.07H32.7254V28.67H47.9914V31.9L41.4634 39.72L41.3614 38.428C42.8801 38.4507 44.2174 38.7907 45.3734 39.448C46.5294 40.0827 47.4248 40.9667 48.0594 42.1C48.7168 43.2107 49.0454 44.5027 49.0454 45.976C49.0454 47.5627 48.6601 49.002 47.8894 50.294C47.1188 51.5633 46.0534 52.572 44.6934 53.32C43.3561 54.0453 41.8148 54.408 40.0694 54.408Z" fill="url(#paint1_linear_2354_63)"/>
<defs>
<linearGradient id="paint0_linear_2354_63" x1="1.34366" y1="-0.0686626" x2="94.7658" y2="29.9744" gradientUnits="userSpaceOnUse">
<stop stop-color="#6557FF"/>
<stop offset="0.33" stop-color="#AA3FFF"/>
<stop offset="0.66" stop-color="#FCAA4A"/>
<stop offset="1" stop-color="#F8522E"/>
</linearGradient>
<linearGradient id="paint1_linear_2354_63" x1="30.0925" y1="22.5342" x2="56.7924" y2="27.8375" gradientUnits="userSpaceOnUse">
<stop stop-color="#6557FF"/>
<stop offset="0.33" stop-color="#AA3FFF"/>
<stop offset="0.66" stop-color="#FCAA4A"/>
<stop offset="1" stop-color="#F8522E"/>
</linearGradient>
</defs>
</svg>
