<svg width="80" height="80" viewBox="0 0 80 80" fill="none" xmlns="http://www.w3.org/2000/svg">
<path d="M40 79C61.5391 79 79 61.5391 79 40C79 18.4609 61.5391 1 40 1C18.4609 1 1 18.4609 1 40C1 61.5391 18.4609 79 40 79Z" stroke="url(#paint0_linear_2354_60)" stroke-width="2" stroke-dasharray="2 6"/>
<path d="M32.0398 54V51.11L38.9758 43.698C40.3358 42.2473 41.4012 41.08 42.1718 40.196C42.9652 39.2893 43.5318 38.496 43.8718 37.816C44.2345 37.136 44.4158 36.422 44.4158 35.674C44.4158 34.45 44.0418 33.5093 43.2938 32.852C42.5458 32.172 41.5825 31.832 40.4038 31.832C39.1798 31.832 38.1258 32.1833 37.2418 32.886C36.3578 33.566 35.7458 34.5633 35.4058 35.878L31.8698 34.858C32.1418 33.5207 32.6858 32.3647 33.5018 31.39C34.3178 30.3927 35.3152 29.622 36.4938 29.078C37.6952 28.534 38.9872 28.262 40.3698 28.262C41.9792 28.262 43.3845 28.568 44.5858 29.18C45.7872 29.7693 46.7165 30.5967 47.3738 31.662C48.0538 32.7273 48.3938 33.9627 48.3938 35.368C48.3938 36.2973 48.2125 37.204 47.8498 38.088C47.5098 38.9493 46.9772 39.8673 46.2518 40.842C45.5265 41.794 44.5972 42.8707 43.4638 44.072L37.3438 50.6H48.8698V54H32.0398Z" fill="#101011"/>
<path d="M32.0398 54V51.11L38.9758 43.698C40.3358 42.2473 41.4012 41.08 42.1718 40.196C42.9652 39.2893 43.5318 38.496 43.8718 37.816C44.2345 37.136 44.4158 36.422 44.4158 35.674C44.4158 34.45 44.0418 33.5093 43.2938 32.852C42.5458 32.172 41.5825 31.832 40.4038 31.832C39.1798 31.832 38.1258 32.1833 37.2418 32.886C36.3578 33.566 35.7458 34.5633 35.4058 35.878L31.8698 34.858C32.1418 33.5207 32.6858 32.3647 33.5018 31.39C34.3178 30.3927 35.3152 29.622 36.4938 29.078C37.6952 28.534 38.9872 28.262 40.3698 28.262C41.9792 28.262 43.3845 28.568 44.5858 29.18C45.7872 29.7693 46.7165 30.5967 47.3738 31.662C48.0538 32.7273 48.3938 33.9627 48.3938 35.368C48.3938 36.2973 48.2125 37.204 47.8498 38.088C47.5098 38.9493 46.9772 39.8673 46.2518 40.842C45.5265 41.794 44.5972 42.8707 43.4638 44.072L37.3438 50.6H48.8698V54H32.0398Z" fill="url(#paint1_linear_2354_60)"/>
<defs>
<linearGradient id="paint0_linear_2354_60" x1="1.34366" y1="-0.0686626" x2="94.7658" y2="29.9744" gradientUnits="userSpaceOnUse">
<stop stop-color="#6557FF"/>
<stop offset="0.33" stop-color="#AA3FFF"/>
<stop offset="0.66" stop-color="#FCAA4A"/>
<stop offset="1" stop-color="#F8522E"/>
</linearGradient>
<linearGradient id="paint1_linear_2354_60" x1="30.0925" y1="22.5342" x2="56.7924" y2="27.8375" gradientUnits="userSpaceOnUse">
<stop stop-color="#6557FF"/>
<stop offset="0.33" stop-color="#AA3FFF"/>
<stop offset="0.66" stop-color="#FCAA4A"/>
<stop offset="1" stop-color="#F8522E"/>
</linearGradient>
</defs>
</svg>
