<svg width="100" height="16" viewBox="0 0 100 16" fill="none" xmlns="http://www.w3.org/2000/svg">
<path d="M7.49119 0.354382C7.66134 -0.118126 8.33866 -0.118128 8.50881 0.354381L10.3347 5.42478C10.4112 5.63723 10.6149 5.77916 10.8435 5.77916H15.459C15.9771 5.77916 16.1978 6.42931 15.7842 6.73716L11.9691 9.57654C11.7931 9.70749 11.7155 9.93082 11.773 10.1407L13.1927 15.3262C13.3273 15.8175 12.7536 16.1974 12.3437 15.8884L8.32785 12.8621C8.1343 12.7162 7.86573 12.7163 7.67221 12.8622L3.65853 15.8883C3.24867 16.1973 2.67499 15.8177 2.80933 15.3263L4.22721 10.1406C4.28459 9.93077 4.20696 9.70754 4.03106 9.57662L0.215833 6.73717C-0.197819 6.42931 0.0228618 5.77916 0.541012 5.77916H5.15654C5.38506 5.77916 5.58884 5.63723 5.66535 5.42478L7.49119 0.354382Z" fill="#FCAA4A"/>
<path d="M28.4912 0.354382C28.6613 -0.118126 29.3387 -0.118128 29.5088 0.354381L31.3347 5.42478C31.4112 5.63723 31.6149 5.77916 31.8435 5.77916H36.459C36.9771 5.77916 37.1978 6.42931 36.7842 6.73716L32.9691 9.57654C32.7931 9.70749 32.7155 9.93082 32.773 10.1407L34.1927 15.3262C34.3273 15.8175 33.7536 16.1974 33.3437 15.8884L29.3278 12.8621C29.1343 12.7162 28.8657 12.7163 28.6722 12.8622L24.6585 15.8883C24.2487 16.1973 23.675 15.8177 23.8093 15.3263L25.2272 10.1406C25.2846 9.93077 25.207 9.70754 25.0311 9.57662L21.2158 6.73717C20.8022 6.42931 21.0229 5.77916 21.541 5.77916H26.1565C26.3851 5.77916 26.5888 5.63723 26.6653 5.42478L28.4912 0.354382Z" fill="#FCAA4A"/>
<path d="M49.4912 0.354382C49.6613 -0.118126 50.3387 -0.118128 50.5088 0.354381L52.3347 5.42478C52.4112 5.63723 52.6149 5.77916 52.8435 5.77916H57.459C57.9771 5.77916 58.1978 6.42931 57.7842 6.73716L53.9691 9.57654C53.7931 9.70749 53.7155 9.93082 53.773 10.1407L55.1927 15.3262C55.3273 15.8175 54.7536 16.1974 54.3437 15.8884L50.3278 12.8621C50.1343 12.7162 49.8657 12.7163 49.6722 12.8622L45.6585 15.8883C45.2487 16.1973 44.675 15.8177 44.8093 15.3263L46.2272 10.1406C46.2846 9.93077 46.207 9.70754 46.0311 9.57662L42.2158 6.73717C41.8022 6.42931 42.0229 5.77916 42.541 5.77916H47.1565C47.3851 5.77916 47.5888 5.63723 47.6653 5.42478L49.4912 0.354382Z" fill="#FCAA4A"/>
<path d="M70.4912 0.354382C70.6613 -0.118126 71.3387 -0.118128 71.5088 0.354381L73.3347 5.42478C73.4112 5.63723 73.6149 5.77916 73.8435 5.77916H78.459C78.9771 5.77916 79.1978 6.42931 78.7842 6.73716L74.9691 9.57654C74.7931 9.70749 74.7155 9.93082 74.773 10.1407L76.1927 15.3262C76.3273 15.8175 75.7536 16.1974 75.3437 15.8884L71.3278 12.8621C71.1343 12.7162 70.8657 12.7163 70.6722 12.8622L66.6585 15.8883C66.2487 16.1973 65.675 15.8177 65.8093 15.3263L67.2272 10.1406C67.2846 9.93077 67.207 9.70754 67.0311 9.57662L63.2158 6.73717C62.8022 6.42931 63.0229 5.77916 63.541 5.77916H68.1565C68.3851 5.77916 68.5888 5.63723 68.6653 5.42478L70.4912 0.354382Z" fill="#FCAA4A"/>
<path d="M91.4912 0.354382C91.6613 -0.118126 92.3387 -0.118128 92.5088 0.354381L94.3347 5.42478C94.4112 5.63723 94.6149 5.77916 94.8435 5.77916H99.459C99.9771 5.77916 100.198 6.42931 99.7842 6.73716L95.9691 9.57654C95.7931 9.70749 95.7155 9.93082 95.773 10.1407L97.1927 15.3262C97.3273 15.8175 96.7536 16.1974 96.3437 15.8884L92.3278 12.8621C92.1343 12.7162 91.8657 12.7163 91.6722 12.8622L87.6585 15.8883C87.2487 16.1973 86.675 15.8177 86.8093 15.3263L88.2272 10.1406C88.2846 9.93077 88.207 9.70754 88.0311 9.57662L84.2158 6.73717C83.8022 6.42931 84.0229 5.77916 84.541 5.77916H89.1565C89.3851 5.77916 89.5888 5.63723 89.6653 5.42478L91.4912 0.354382Z" fill="#FCAA4A"/>
</svg>
