<svg width="132" height="26" viewBox="0 0 132 26" fill="none" xmlns="http://www.w3.org/2000/svg">
<path d="M127.86 11.5163V17.475C127.86 18.0025 127.877 18.3652 127.91 18.563C127.959 18.7608 128.066 18.8926 128.231 18.9586C128.413 19.008 128.742 19.0327 129.22 19.0327H131.421V21.802H128.553C127.646 21.802 126.913 21.6866 126.352 21.4558C125.792 21.2086 125.371 20.7965 125.091 20.2196C124.827 19.6426 124.696 18.8349 124.696 17.7965V11.5163H122.322V8.74703H124.696V5.18658H127.86V8.74703H131.421V11.5163H127.86Z" fill="#101011"/>
<path d="M121.12 3.99994V21.8021H117.955V3.99994H121.12Z" fill="#101011"/>
<path d="M109.832 8.54938C111.15 8.54938 112.304 8.84608 113.293 9.43949C114.282 10.0329 115.041 10.8406 115.568 11.8626C116.095 12.8845 116.359 14.0219 116.359 15.2747C116.359 16.5274 116.095 17.6648 115.568 18.6867C115.041 19.7087 114.282 20.5164 113.293 21.1098C112.304 21.7032 111.15 21.9999 109.832 21.9999C108.513 21.9999 107.359 21.7032 106.37 21.1098C105.381 20.5164 104.623 19.7087 104.095 18.6867C103.568 17.6648 103.304 16.5274 103.304 15.2747C103.304 14.0219 103.568 12.8845 104.095 11.8626C104.623 10.8406 105.381 10.0329 106.37 9.43949C107.359 8.84608 108.513 8.54938 109.832 8.54938ZM109.832 19.1318C110.87 19.1318 111.686 18.7692 112.28 18.0439C112.889 17.3021 113.194 16.379 113.194 15.2747C113.194 14.1703 112.889 13.2554 112.28 12.5301C111.686 11.7884 110.87 11.4175 109.832 11.4175C108.793 11.4175 107.969 11.7884 107.359 12.5301C106.766 13.2554 106.469 14.1703 106.469 15.2747C106.469 16.379 106.766 17.3021 107.359 18.0439C107.969 18.7692 108.793 19.1318 109.832 19.1318Z" fill="#101011"/>
<path d="M101.714 15.7689C101.714 17.7304 101.219 19.2634 100.23 20.3678C99.2414 21.4557 97.8238 21.9997 95.9776 21.9997C94.115 21.9997 92.6892 21.4557 91.7002 20.3678C90.7276 19.2799 90.2414 17.7469 90.2414 15.7689H93.604C93.604 16.8898 93.8183 17.7139 94.2469 18.2414C94.6919 18.7689 95.2688 19.0326 95.9776 19.0326C96.604 19.0326 97.1562 18.7936 97.6342 18.3156C98.1122 17.8211 98.3513 17.0381 98.3513 15.9667V4.39526H101.714V15.7689Z" fill="#101011"/>
<path d="M85.8911 21.8021L81.8856 16.3378L80.7483 17.4752V21.8021H77.5834V3.99994H80.7483V11.7884C80.7483 12.2664 80.6988 12.6455 80.5999 12.9258C80.501 13.1895 80.3362 13.4615 80.1054 13.7417C80.0395 13.8406 80.0065 13.9148 80.0065 13.9642C80.0065 14.0466 80.0395 14.1126 80.1054 14.162C80.1549 14.2115 80.2126 14.2362 80.2785 14.2362C80.3444 14.2362 80.4268 14.1867 80.5257 14.0878L85.4955 8.74719H89.4516L84.012 14.2115L89.8472 21.8021H85.8911Z" fill="#101011"/>
<path d="M67.0379 17.401C67.0544 17.9944 67.2769 18.4972 67.7055 18.9093C68.1505 19.3214 68.8923 19.5274 69.9308 19.5274C70.8868 19.5274 71.5709 19.3873 71.983 19.1071C72.4115 18.8269 72.6258 18.4477 72.6258 17.9697C72.6258 17.6565 72.4857 17.4175 72.2055 17.2527C71.9417 17.0878 71.5709 16.9642 71.0928 16.8818C70.6148 16.7829 69.8648 16.6757 68.8428 16.5604C67.0626 16.3461 65.8593 15.8681 65.233 15.1263C64.6231 14.3681 64.3181 13.5027 64.3181 12.5301C64.3181 11.8049 64.5324 11.1455 64.961 10.5521C65.3895 9.94223 66.0242 9.45597 66.8648 9.09333C67.7055 8.7307 68.7192 8.54938 69.906 8.54938C71.5709 8.54938 72.8813 8.94498 73.8374 9.73619C74.7934 10.5109 75.3126 11.5164 75.395 12.7527H72.2797C72.2302 12.2582 72.0159 11.8461 71.6368 11.5164C71.2742 11.1867 70.6725 11.0219 69.8319 11.0219C68.2659 11.0219 67.483 11.467 67.483 12.3571C67.483 12.6043 67.5406 12.8104 67.656 12.9752C67.7879 13.14 68.0599 13.2884 68.472 13.4203C68.8841 13.5521 69.4939 13.6593 70.3016 13.7417C72.0324 13.923 73.3758 14.3268 74.3319 14.9532C75.3044 15.5631 75.7906 16.4862 75.7906 17.7225C75.7906 19.0906 75.2714 20.1455 74.233 20.8873C73.211 21.629 71.7439 21.9999 69.8319 21.9999C67.9857 21.9999 66.5516 21.5961 65.5297 20.7884C64.5242 19.9642 63.9884 18.8351 63.9225 17.401H67.0379Z" fill="#101011"/>
<path d="M50.0629 18.217C50.0629 16.8653 50.4914 15.8681 51.3486 15.2252C52.2222 14.5659 53.3761 14.195 54.8101 14.1126L56.0711 14.0631C57.192 14.0301 57.9914 13.956 58.4695 13.8406C58.9475 13.7252 59.1783 13.445 59.1618 12.9999C59.1453 12.4395 58.9557 11.9862 58.5931 11.64C58.2304 11.2939 57.5464 11.1208 56.5409 11.1208C55.5189 11.1208 54.7936 11.3021 54.3651 11.6648C53.9365 12.0109 53.6728 12.4889 53.5739 13.0988H50.4585C50.6728 11.5494 51.3568 10.4038 52.5107 9.66201C53.6645 8.92026 55.0409 8.54938 56.6398 8.54938C58.387 8.54938 59.7717 8.97795 60.7936 9.83509C61.8156 10.6922 62.3266 12.2747 62.3266 14.5823V21.8021H59.1618V20.8873C59.1618 20.3928 59.2854 19.9148 59.5326 19.4532C59.5986 19.2884 59.6315 19.1648 59.6315 19.0823C59.6315 18.9834 59.5903 18.9175 59.5079 18.8845L59.409 18.8598C59.3101 18.8598 59.2359 18.9093 59.1865 19.0082C59.137 19.0906 59.1123 19.14 59.1123 19.1565C58.3376 21.0521 56.8376 21.9999 54.6123 21.9999C53.8046 21.9999 53.0464 21.8351 52.3376 21.5054C51.6453 21.1758 51.0931 20.7225 50.681 20.1455C50.2689 19.5686 50.0629 18.9258 50.0629 18.217ZM59.1618 15.0769C58.8321 15.4395 58.3953 15.695 57.8513 15.8433C57.3239 15.9752 56.4914 16.0988 55.3541 16.2142C54.6453 16.2966 54.1096 16.4862 53.7469 16.7829C53.4008 17.0631 53.2277 17.4834 53.2277 18.0439C53.2277 18.5219 53.409 18.9093 53.7717 19.206C54.1508 19.5027 54.637 19.651 55.2305 19.651C55.4447 19.651 55.6096 19.6428 55.725 19.6263C56.6975 19.4944 57.5052 19.0741 58.148 18.3653C58.8074 17.6565 59.1453 16.5604 59.1618 15.0769Z" fill="#101011"/>
<path d="M50.8462 4.39526V7.3623H45.6044V21.8019H42.2418V7.3623H37V4.39526H50.8462Z" fill="#101011"/>
<path d="M20.71 25.6701L17.147 21.7976C16.7805 21.3992 16.7805 20.7813 17.147 20.3829L19.8154 17.4828C20.1819 17.0844 20.1819 16.4665 19.8154 16.0681L16.2523 12.1956C15.8477 11.7557 15.1599 11.7557 14.7552 12.1956L4.34261 23.5127C3.93793 23.9526 3.25014 23.9526 2.84546 23.5127L0.274914 20.7189C-0.0916405 20.3205 -0.0916405 19.7026 0.274916 19.3042L17.7326 0.329881C18.1373 -0.10996 18.8251 -0.10996 19.2298 0.329881L31.7251 13.9107C32.0916 14.3091 32.0916 14.927 31.7251 15.3254L22.2072 25.6701C21.8025 26.11 21.1147 26.11 20.71 25.6701Z" fill="url(#paint0_linear_2354_357)"/>
<defs>
<linearGradient id="paint0_linear_2354_357" x1="31.859" y1="-0.356221" x2="-4.70394" y2="14.1152" gradientUnits="userSpaceOnUse">
<stop stop-color="#6557FF"/>
<stop offset="0.33" stop-color="#AA3FFF"/>
<stop offset="0.66" stop-color="#FCAA4A"/>
<stop offset="1" stop-color="#F8522E"/>
</linearGradient>
</defs>
</svg>
