<svg width="17" height="20" viewBox="0 0 17 20" fill="none" xmlns="http://www.w3.org/2000/svg">
<path d="M4.08053 16.5054C4.08053 15.0919 2.83869 13.117 1 13.117C2.83886 13.117 4.08053 11.1422 4.08053 9.72852C4.08053 11.142 5.32237 13.117 7.16105 13.117C5.32237 13.1171 4.08053 15.0919 4.08053 16.5054ZM17 14.5722C14.5881 14.5722 12.9641 11.9945 12.9641 10.1444C12.9641 11.9945 11.3403 14.5722 8.92823 14.5722C11.3401 14.5722 12.9641 17.1707 12.9641 19C12.9641 17.1497 14.6119 14.5722 17 14.5722ZM14.6119 5.77899C11.4836 5.77899 9.3582 2.41142 9.3582 0C9.3582 2.41142 7.23278 5.77899 4.10441 5.77899C7.23274 5.77899 9.3582 9.14657 9.3582 11.558C9.358 9.14657 11.4834 5.77899 14.6119 5.77899Z" fill="white"/>
</svg>
