<svg width="100" height="100" viewBox="0 0 100 100" fill="none" xmlns="http://www.w3.org/2000/svg">
<rect width="100" height="100" rx="50" fill="#6557FF"/>
<path fill-rule="evenodd" clip-rule="evenodd" d="M61.3101 28.125C64.5694 28.125 67.7049 29.4132 70.0115 31.7247C72.3205 34.0312 73.6111 37.1424 73.6111 40.3993V59.6007C73.6111 66.3819 68.0938 71.875 61.3101 71.875H37.2986C30.5149 71.875 25 66.3819 25 59.6007V40.3993C25 33.6181 30.4906 28.125 37.2986 28.125H61.3101ZM65.1768 44.0208L65.3713 43.8264C65.9522 43.1215 65.9522 42.1007 65.3445 41.3958C65.0067 41.0337 64.5425 40.8125 64.0588 40.7639C63.5484 40.7371 63.0622 40.9097 62.6952 41.25L51.7359 50C50.3261 51.1691 48.3063 51.1691 46.8747 50L35.9372 41.25C35.1813 40.691 34.1362 40.7639 33.5067 41.4201C32.8504 42.0764 32.7775 43.1215 33.3341 43.8507L33.6525 44.1666L44.7116 52.7951C46.0727 53.8646 47.723 54.4479 49.4511 54.4479C51.1744 54.4479 52.8539 53.8646 54.2126 52.7951L65.1768 44.0208Z" fill="white"/>
</svg>
