<svg width="100" height="100" viewBox="0 0 100 100" fill="none" xmlns="http://www.w3.org/2000/svg">
<rect width="100" height="100" rx="50" fill="#F8522E"/>
<path fill-rule="evenodd" clip-rule="evenodd" d="M31.25 46.3201C31.25 36.2579 39.6585 28.125 49.8294 28.125C60.029 28.125 68.4375 36.2579 68.4375 46.3201C68.4375 51.3906 66.5935 56.0979 63.5583 60.0878C60.2099 64.4889 56.0828 68.3235 51.4374 71.3334C50.3742 72.029 49.4147 72.0815 48.2479 71.3334C43.576 68.3235 39.4489 64.4889 36.1292 60.0878C33.0918 56.0979 31.25 51.3906 31.25 46.3201ZM43.7042 46.8868C43.7042 50.2576 46.4549 52.9088 49.8275 52.9088C53.2024 52.9088 55.9795 50.2576 55.9795 46.8868C55.9795 43.5422 53.2024 40.7619 49.8275 40.7619C46.4549 40.7619 43.7042 43.5422 43.7042 46.8868Z" fill="white"/>
</svg>
