<svg width="100" height="100" viewBox="0 0 100 100" fill="none" xmlns="http://www.w3.org/2000/svg">
<rect width="100" height="100" rx="50" fill="#AA3FFF"/>
<path d="M63.4899 55.2045C62.0206 54.8884 60.8582 55.5706 59.829 56.1664C58.7749 56.7804 56.7706 58.4063 55.6218 57.9901C49.7399 55.5683 44.2078 50.4201 41.813 44.5146C41.391 43.3412 43.0093 41.3242 43.6187 40.2577C44.21 39.2253 44.8781 38.0519 44.5734 36.5716C44.2981 35.2413 40.7364 30.7093 39.477 29.47C38.6464 28.6513 37.7955 28.2011 36.922 28.1283C33.6379 27.9873 29.9702 32.3693 29.3269 33.4176C27.7154 35.6529 27.7244 38.6273 29.354 42.2338C33.2813 51.9209 48.1351 66.5403 57.8585 70.6152C59.6529 71.4543 61.2938 71.875 62.7677 71.875C64.2099 71.875 65.4942 71.4725 66.5979 70.6743C67.4308 70.1945 71.9923 66.3447 71.8727 62.9724C71.8005 62.1128 71.3513 61.2533 70.5433 60.421C69.3132 59.1499 64.8103 55.4819 63.4899 55.2045Z" fill="white"/>
</svg>
