<svg width="56" height="64" viewBox="0 0 56 64" fill="none" xmlns="http://www.w3.org/2000/svg">
<path d="M29.8262 0.318605L51.066 7.44485C53.4435 8.23875 55.0511 10.4228 55.0639 12.8703L55.1993 34.1204C55.2411 40.5626 52.8926 46.8102 48.5918 51.7054C46.6138 53.9522 44.0784 55.882 40.8408 57.6079L29.4235 63.7112C29.0659 63.8994 28.6729 63.9967 28.2767 63.9999C27.8804 64.003 27.4842 63.9089 27.1298 63.7237L15.6063 57.7616C12.3332 56.064 9.77523 54.1624 7.77786 51.947C3.4062 47.1021 0.977146 40.8827 0.935266 34.4311L0.799882 13.1967C0.787074 10.746 2.36564 8.54627 4.73027 7.72099L25.8895 0.340571C27.1459 -0.105016 28.5473 -0.11443 29.8262 0.318605ZM39.9832 23.0997C39.0328 22.1866 37.5026 22.1928 36.5651 23.1185L25.7857 33.7436L21.3722 29.5011C20.4219 28.5879 18.8948 28.5974 17.9541 29.5231C17.0167 30.4487 17.0263 31.9361 17.9767 32.8493L24.1073 38.7486C24.5841 39.2067 25.2026 39.4326 25.8212 39.4265C26.4397 39.4232 27.055 39.191 27.5254 38.7266L40.0025 26.4259C40.94 25.5002 40.9303 24.0128 39.9832 23.0997Z" fill="#6557FF"/>
</svg>
