<svg width="72" height="64" viewBox="0 0 72 64" fill="none" xmlns="http://www.w3.org/2000/svg">
<path d="M26.5753 42.1608C40.7454 42.1608 52.7063 44.4129 52.7063 53.1213C52.7063 61.8229 40.6688 64 26.5753 64L25.6127 63.9965C11.8677 63.8943 0.444336 61.55 0.444336 53.0395C0.444336 44.3379 12.4818 42.1608 26.5753 42.1608ZM48.6922 36.9181C54.0812 36.8159 59.8772 37.5416 62.0168 38.0526C66.5535 38.9214 69.535 40.6897 70.7701 43.2688C71.8172 45.3812 71.8172 47.8342 70.7701 49.9466C68.8809 53.9397 62.7857 55.2241 60.4165 55.5546C59.9259 55.6228 59.5328 55.2139 59.585 54.7301C60.7957 43.664 51.1692 38.4172 48.6782 37.2111C48.5739 37.1532 48.5495 37.0714 48.56 37.0169C48.5669 36.9828 48.6121 36.9283 48.6922 36.9181ZM26.5753 0C36.1739 0 43.8661 7.53298 43.8661 16.933C43.8661 26.3331 36.1739 33.866 26.5753 33.866C16.9801 33.866 9.28454 26.3331 9.28454 16.933C9.28454 7.53298 16.9801 0 26.5753 0ZM49.6315 2.82819C58.9031 2.82819 66.1812 11.3662 63.7007 20.8753C62.0273 27.284 55.9703 31.5394 49.221 31.3656C48.5426 31.352 47.8781 31.2872 47.231 31.1816C46.7648 31.0999 46.5282 30.5854 46.7961 30.2038C49.3706 26.4935 50.8387 22.0269 50.8387 17.24C50.8387 12.2385 49.2384 7.58102 46.4517 3.75491C46.3612 3.63566 46.2951 3.45509 46.3856 3.3154C46.4551 3.20637 46.5943 3.14504 46.723 3.11779C47.6624 2.9304 48.6261 2.82819 49.6315 2.82819Z" fill="#AA3FFF"/>
</svg>
