<svg width="20" height="20" viewBox="0 0 20 20" fill="none" xmlns="http://www.w3.org/2000/svg">
<path d="M9.00891 0.0118885C7.14776 0.211298 5.44301 0.883814 3.92203 2.02162C3.42546 2.39306 2.40496 3.41357 2.03351 3.91013C1.01692 5.26689 0.391324 6.71749 0.109806 8.3675C0.00423686 8.97746 -0.0348629 10.385 0.0355167 11.0224C0.215375 12.6958 0.762772 14.209 1.67771 15.5658L1.88102 15.8668L1.25152 17.728C0.907441 18.7524 0.629833 19.593 0.633743 19.5969C0.637653 19.6048 1.48612 19.3389 2.51835 19.0065C3.55058 18.6742 4.43033 18.4005 4.46943 18.4005C4.50853 18.4005 4.63365 18.4552 4.74313 18.5256C5.99432 19.3076 7.44101 19.8003 8.97763 19.9645C9.61495 20.0349 11.0225 19.9958 11.6325 19.8902C13.2825 19.6087 14.737 18.9831 16.0899 17.9665C16.5864 17.595 17.6069 16.5745 17.9784 16.078C19.0106 14.6977 19.6401 13.2159 19.9256 11.4994C20.0272 10.8816 20.0272 9.10649 19.9256 8.48871C19.6401 6.77223 19.0106 5.29035 17.9784 3.91013C17.6069 3.41357 16.5864 2.39306 16.0899 2.02162C14.737 1.00893 13.2903 0.383337 11.6325 0.097908C11.2532 0.0314388 10.96 0.0118885 10.1623 0.00407028C9.61495 -0.00374985 9.09493 0.000160217 9.00891 0.0118885ZM6.85842 4.65303C6.96008 4.69604 7.01873 4.76642 7.10866 4.94628C7.33544 5.39201 8.16826 7.44084 8.16826 7.55032C8.16826 7.73409 8.01577 7.97651 7.63651 8.41051C7.4371 8.63338 7.25333 8.85625 7.22987 8.89535C7.1243 9.09476 7.22596 9.36064 7.61696 9.91585C8.47324 11.1319 9.45073 11.9842 10.6824 12.5746C11.6599 13.0477 11.7811 13.0165 12.4106 12.1445C12.8641 11.515 13.044 11.3665 13.306 11.4251C13.5718 11.4838 15.8514 12.5942 15.9491 12.7154C16.0899 12.8835 15.9648 13.8063 15.738 14.2481C15.4134 14.8893 14.4086 15.4797 13.4936 15.5658C12.5435 15.6596 10.2796 14.8698 8.93853 13.9783C7.58177 13.0751 6.18591 11.5971 5.09893 9.91976C4.55154 9.07521 4.21919 8.09771 4.21919 7.33527C4.21919 6.51418 4.47334 5.8182 5.00118 5.19651C5.2436 4.90327 5.47038 4.74296 5.75581 4.65694C5.98259 4.58265 6.68638 4.58265 6.85842 4.65303Z" fill="#101011"/>
</svg>
